<svg width="107" height="32" viewBox="0 0 107 32" fill="none" xmlns="http://www.w3.org/2000/svg">
<rect width="106.822" height="31.3333" transform="translate(0.0148315)" fill="url(#paint0_linear_1291_785)"/>
<g filter="url(#filter0_d_1291_785)">
<path d="M35.6281 22.1665C35.5201 22.1665 35.4301 22.1305 35.3581 22.0585C35.2861 21.9865 35.2501 21.8965 35.2501 21.7885C35.2501 21.7525 35.2561 21.7165 35.2681 21.6805C35.2801 21.6445 35.2921 21.6085 35.3041 21.5725L39.3361 15.7405L35.5561 10.1605C35.5201 10.0885 35.5021 10.0165 35.5021 9.9445C35.5021 9.8365 35.5381 9.7465 35.6101 9.6745C35.6821 9.6025 35.7661 9.5665 35.8621 9.5665H37.7161C37.8601 9.5665 37.9741 9.6025 38.0581 9.6745C38.1421 9.7465 38.2141 9.8245 38.2741 9.9085L40.9201 13.7965L43.5841 9.9085C43.6321 9.8245 43.6981 9.7465 43.7821 9.6745C43.8781 9.6025 43.9981 9.5665 44.1421 9.5665H45.8881C45.9961 9.5665 46.0861 9.6025 46.1581 9.6745C46.2301 9.7465 46.2661 9.8365 46.2661 9.9445C46.2661 10.0165 46.2421 10.0885 46.1941 10.1605L42.4321 15.7405L46.4641 21.5725C46.4881 21.6085 46.5061 21.6445 46.5181 21.6805C46.5301 21.7165 46.5361 21.7525 46.5361 21.7885C46.5361 21.8965 46.4941 21.9865 46.4101 22.0585C46.3381 22.1305 46.2541 22.1665 46.1581 22.1665H44.2501C44.1061 22.1665 43.9921 22.1305 43.9081 22.0585C43.8241 21.9865 43.7581 21.9145 43.7101 21.8425L40.8301 17.7745L38.0041 21.8425C37.9561 21.9145 37.8901 21.9865 37.8061 22.0585C37.7221 22.1305 37.6021 22.1665 37.4461 22.1665H35.6281ZM48.68 22.1665C48.56 22.1665 48.458 22.1245 48.374 22.0405C48.29 21.9565 48.248 21.8485 48.248 21.7165V10.0165C48.248 9.8845 48.29 9.7765 48.374 9.6925C48.458 9.6085 48.566 9.5665 48.698 9.5665H50.318C50.45 9.5665 50.552 9.6085 50.624 9.6925C50.708 9.7765 50.75 9.8845 50.75 10.0165V18.2785L56.672 9.8545C56.72 9.7945 56.786 9.7345 56.87 9.6745C56.954 9.6025 57.062 9.5665 57.194 9.5665H58.688C58.808 9.5665 58.91 9.6085 58.994 9.6925C59.078 9.7765 59.12 9.8845 59.12 10.0165V21.7345C59.12 21.8545 59.078 21.9565 58.994 22.0405C58.91 22.1245 58.808 22.1665 58.688 22.1665H57.068C56.936 22.1665 56.828 22.1245 56.744 22.0405C56.66 21.9565 56.618 21.8545 56.618 21.7345V13.6345L50.714 21.8785C50.678 21.9265 50.618 21.9865 50.534 22.0585C50.45 22.1305 50.336 22.1665 50.192 22.1665H48.68ZM65.1278 22.1665C65.0078 22.1665 64.9058 22.1245 64.8218 22.0405C64.7378 21.9565 64.6958 21.8545 64.6958 21.7345V11.7805H61.3658C61.2458 11.7805 61.1438 11.7385 61.0598 11.6545C60.9758 11.5705 60.9338 11.4685 60.9338 11.3485V10.0165C60.9338 9.8845 60.9758 9.7765 61.0598 9.6925C61.1438 9.6085 61.2458 9.5665 61.3658 9.5665H70.5458C70.6778 9.5665 70.7858 9.6085 70.8698 9.6925C70.9538 9.7765 70.9958 9.8845 70.9958 10.0165V11.3485C70.9958 11.4685 70.9538 11.5705 70.8698 11.6545C70.7858 11.7385 70.6778 11.7805 70.5458 11.7805H67.2338V21.7345C67.2338 21.8545 67.1918 21.9565 67.1078 22.0405C67.0238 22.1245 66.9158 22.1665 66.7838 22.1665H65.1278Z" fill="white"/>
</g>
<defs>
<filter id="filter0_d_1291_785" x="34.2501" y="9.56641" width="39.7458" height="16.6001" filterUnits="userSpaceOnUse" color-interpolation-filters="sRGB">
<feFlood flood-opacity="0" result="BackgroundImageFix"/>
<feColorMatrix in="SourceAlpha" type="matrix" values="0 0 0 0 0 0 0 0 0 0 0 0 0 0 0 0 0 0 127 0" result="hardAlpha"/>
<feOffset dx="1" dy="2"/>
<feGaussianBlur stdDeviation="1"/>
<feComposite in2="hardAlpha" operator="out"/>
<feColorMatrix type="matrix" values="0 0 0 0 0.054902 0 0 0 0 0.054902 0 0 0 0 0.321569 0 0 0 0.3 0"/>
<feBlend mode="normal" in2="BackgroundImageFix" result="effect1_dropShadow_1291_785"/>
<feBlend mode="normal" in="SourceGraphic" in2="effect1_dropShadow_1291_785" result="shape"/>
</filter>
<linearGradient id="paint0_linear_1291_785" x1="0" y1="15.6761" x2="106.822" y2="15.6761" gradientUnits="userSpaceOnUse">
<stop offset="0.25" stop-color="#3A65F1"/>
<stop offset="1" stop-color="#07F1D3"/>
</linearGradient>
</defs>
</svg>
