<svg width="24" height="24" viewBox="0 0 24 24" fill="none" xmlns="http://www.w3.org/2000/svg">
<path d="M22.5 3H1.5C1.10218 3 0.720644 3.15804 0.43934 3.43934C0.158035 3.72064 0 4.10218 0 4.5V19.5C0 19.8978 0.158035 20.2794 0.43934 20.5607C0.720644 20.842 1.10218 21 1.5 21H22.5C22.8978 21 23.2794 20.842 23.5607 20.5607C23.842 20.2794 24 19.8978 24 19.5V4.5C24 4.10218 23.842 3.72064 23.5607 3.43934C23.2794 3.15804 22.8978 3 22.5 3ZM21.345 19.5H2.745L7.995 14.07L6.915 13.0275L1.5 18.63V5.64L10.8225 14.9175C11.1035 15.1969 11.4837 15.3537 11.88 15.3537C12.2763 15.3537 12.6565 15.1969 12.9375 14.9175L22.5 5.4075V18.5325L16.98 13.0125L15.9225 14.07L21.345 19.5ZM2.4825 4.5H21.285L11.88 13.8525L2.4825 4.5Z" fill="#0E0E52"/>
</svg>
