<svg width="106" height="32" viewBox="0 0 106 32" fill="none" xmlns="http://www.w3.org/2000/svg">
<rect width="106" height="31.3333" fill="url(#paint0_linear_1291_5068)"/>
<g filter="url(#filter0_d_1291_5068)">
<path d="M15.836 22.1665C15.716 22.1665 15.614 22.1245 15.53 22.0405C15.446 21.9565 15.404 21.8545 15.404 21.7345V10.0165C15.404 9.8845 15.446 9.7765 15.53 9.6925C15.614 9.6085 15.716 9.5665 15.836 9.5665H21.056C22.028 9.5665 22.82 9.7165 23.432 10.0165C24.044 10.3045 24.494 10.7065 24.782 11.2225C25.082 11.7385 25.232 12.3385 25.232 13.0225C25.232 13.4785 25.148 13.8805 24.98 14.2285C24.824 14.5645 24.626 14.8405 24.386 15.0565C24.158 15.2725 23.93 15.4405 23.702 15.5605C24.17 15.7765 24.584 16.1365 24.944 16.6405C25.304 17.1445 25.484 17.7445 25.484 18.4405C25.484 19.1605 25.322 19.8025 24.998 20.3665C24.674 20.9305 24.194 21.3745 23.558 21.6985C22.922 22.0105 22.136 22.1665 21.2 22.1665H15.836ZM17.906 20.2585H20.912C21.56 20.2585 22.052 20.0845 22.388 19.7365C22.724 19.3765 22.892 18.9445 22.892 18.4405C22.892 17.9125 22.718 17.4745 22.37 17.1265C22.034 16.7785 21.548 16.6045 20.912 16.6045H17.906V20.2585ZM17.906 14.7325H20.732C21.368 14.7325 21.842 14.5825 22.154 14.2825C22.478 13.9705 22.64 13.5685 22.64 13.0765C22.64 12.5725 22.478 12.1825 22.154 11.9065C21.842 11.6185 21.368 11.4745 20.732 11.4745H17.906V14.7325ZM27.9598 22.1665C27.8398 22.1665 27.7378 22.1245 27.6538 22.0405C27.5698 21.9565 27.5278 21.8545 27.5278 21.7345V13.2385C27.5278 13.1185 27.5698 13.0165 27.6538 12.9325C27.7378 12.8485 27.8398 12.8065 27.9598 12.8065H29.4718C29.5918 12.8065 29.6938 12.8485 29.7778 12.9325C29.8618 13.0165 29.9038 13.1185 29.9038 13.2385V15.7765H31.6498C32.8738 15.7765 33.7918 16.0645 34.4038 16.6405C35.0158 17.2165 35.3218 18.0085 35.3218 19.0165C35.3218 20.0605 34.9918 20.8465 34.3318 21.3745C33.6838 21.9025 32.7418 22.1665 31.5058 22.1665H27.9598ZM29.8678 20.4565H31.4518C32.0398 20.4565 32.4718 20.3485 32.7478 20.1325C33.0358 19.9165 33.1798 19.5445 33.1798 19.0165C33.1798 18.5005 33.0418 18.1165 32.7658 17.8645C32.5018 17.6125 32.0638 17.4865 31.4518 17.4865H29.8678V20.4565ZM36.9418 22.1665C36.8218 22.1665 36.7198 22.1245 36.6358 22.0405C36.5518 21.9565 36.5098 21.8545 36.5098 21.7345V13.2385C36.5098 13.1185 36.5518 13.0165 36.6358 12.9325C36.7198 12.8485 36.8218 12.8065 36.9418 12.8065H38.4358C38.5678 12.8065 38.6698 12.8485 38.7418 12.9325C38.8258 13.0165 38.8678 13.1185 38.8678 13.2385V21.7345C38.8678 21.8545 38.8258 21.9565 38.7418 22.0405C38.6698 22.1245 38.5678 22.1665 38.4358 22.1665H36.9418ZM41.7235 22.1665C41.6035 22.1665 41.5015 22.1245 41.4175 22.0405C41.3335 21.9565 41.2915 21.8545 41.2915 21.7345V13.2385C41.2915 13.1185 41.3335 13.0165 41.4175 12.9325C41.5015 12.8485 41.6035 12.8065 41.7235 12.8065H47.4295C47.5495 12.8065 47.6515 12.8485 47.7355 12.9325C47.8195 13.0165 47.8615 13.1185 47.8615 13.2385V14.2825C47.8615 14.4025 47.8195 14.5045 47.7355 14.5885C47.6515 14.6725 47.5495 14.7145 47.4295 14.7145H43.6495V21.7345C43.6495 21.8545 43.6075 21.9565 43.5235 22.0405C43.4515 22.1245 43.3495 22.1665 43.2175 22.1665H41.7235ZM53.4471 22.3465C52.4871 22.3465 51.6771 22.1785 51.0171 21.8425C50.3691 21.5065 49.8711 21.0325 49.5231 20.4205C49.1871 19.8085 48.9951 19.0945 48.9471 18.2785C48.9351 18.0625 48.9291 17.7985 48.9291 17.4865C48.9291 17.1745 48.9351 16.9105 48.9471 16.6945C48.9951 15.8665 49.1931 15.1525 49.5411 14.5525C49.9011 13.9405 50.4051 13.4665 51.0531 13.1305C51.7131 12.7945 52.5111 12.6265 53.4471 12.6265C54.3831 12.6265 55.1751 12.7945 55.8231 13.1305C56.4831 13.4665 56.9871 13.9405 57.3351 14.5525C57.6951 15.1525 57.8991 15.8665 57.9471 16.6945C57.9591 16.9105 57.9651 17.1745 57.9651 17.4865C57.9651 17.7985 57.9591 18.0625 57.9471 18.2785C57.8991 19.0945 57.7011 19.8085 57.3531 20.4205C57.0171 21.0325 56.5191 21.5065 55.8591 21.8425C55.2111 22.1785 54.4071 22.3465 53.4471 22.3465ZM53.4471 20.5645C54.0831 20.5645 54.5751 20.3665 54.9231 19.9705C55.2711 19.5625 55.4631 18.9685 55.4991 18.1885C55.5111 18.0085 55.5171 17.7745 55.5171 17.4865C55.5171 17.1985 55.5111 16.9645 55.4991 16.7845C55.4631 16.0165 55.2711 15.4285 54.9231 15.0205C54.5751 14.6125 54.0831 14.4085 53.4471 14.4085C52.8111 14.4085 52.3191 14.6125 51.9711 15.0205C51.6231 15.4285 51.4311 16.0165 51.3951 16.7845C51.3831 16.9645 51.3771 17.1985 51.3771 17.4865C51.3771 17.7745 51.3831 18.0085 51.3951 18.1885C51.4311 18.9685 51.6231 19.5625 51.9711 19.9705C52.3191 20.3665 52.8111 20.5645 53.4471 20.5645ZM59.5995 24.1465C59.4795 24.1465 59.3775 24.1045 59.2935 24.0205C59.2095 23.9365 59.1675 23.8345 59.1675 23.7145V20.6905C59.1675 20.5705 59.2095 20.4685 59.2935 20.3845C59.3775 20.3005 59.4795 20.2585 59.5995 20.2585H59.7435C60.0555 20.2585 60.3075 20.0965 60.4995 19.7725C60.7035 19.4365 60.8535 18.9325 60.9495 18.2605C61.0455 17.5765 61.0935 16.7125 61.0935 15.6685V13.2385C61.0935 13.1185 61.1355 13.0165 61.2195 12.9325C61.3035 12.8485 61.4055 12.8065 61.5255 12.8065H67.9335C68.0655 12.8065 68.1675 12.8485 68.2395 12.9325C68.3235 13.0165 68.3655 13.1185 68.3655 13.2385V20.2405H69.1755C69.3075 20.2405 69.4095 20.2825 69.4815 20.3665C69.5655 20.4505 69.6075 20.5525 69.6075 20.6725V23.7145C69.6075 23.8345 69.5655 23.9365 69.4815 24.0205C69.4095 24.1045 69.3075 24.1465 69.1755 24.1465H67.6815C67.5615 24.1465 67.4595 24.1045 67.3755 24.0205C67.2915 23.9365 67.2495 23.8345 67.2495 23.7145V22.1665H61.5255V23.7145C61.5255 23.8345 61.4835 23.9365 61.3995 24.0205C61.3155 24.1045 61.2135 24.1465 61.0935 24.1465H59.5995ZM62.5155 20.2585L66.0075 20.2405V14.7145H63.3615V15.9205C63.3615 17.0005 63.2895 17.8945 63.1455 18.6025C63.0015 19.3105 62.7915 19.8625 62.5155 20.2585ZM71.6942 22.1665C71.5742 22.1665 71.4722 22.1245 71.3882 22.0405C71.3042 21.9565 71.2622 21.8545 71.2622 21.7345V13.2385C71.2622 13.1185 71.3042 13.0165 71.3882 12.9325C71.4722 12.8485 71.5742 12.8065 71.6942 12.8065H73.1882C73.3202 12.8065 73.4222 12.8485 73.4942 12.9325C73.5782 13.0165 73.6202 13.1185 73.6202 13.2385V16.4605H77.6882V13.2385C77.6882 13.1185 77.7302 13.0165 77.8142 12.9325C77.8982 12.8485 78.0002 12.8065 78.1202 12.8065H79.6142C79.7342 12.8065 79.8362 12.8485 79.9202 12.9325C80.0042 13.0165 80.0462 13.1185 80.0462 13.2385V21.7345C80.0462 21.8545 80.0042 21.9565 79.9202 22.0405C79.8362 22.1245 79.7342 22.1665 79.6142 22.1665H78.1202C78.0002 22.1665 77.8982 22.1245 77.8142 22.0405C77.7302 21.9565 77.6882 21.8545 77.6882 21.7345V18.3505H73.6202V21.7345C73.6202 21.8545 73.5782 21.9565 73.4942 22.0405C73.4222 22.1245 73.3202 22.1665 73.1882 22.1665H71.6942ZM86.6171 22.3465C85.6571 22.3465 84.8471 22.1785 84.1871 21.8425C83.5391 21.5065 83.0411 21.0325 82.6931 20.4205C82.3571 19.8085 82.1651 19.0945 82.1171 18.2785C82.1051 18.0625 82.0991 17.7985 82.0991 17.4865C82.0991 17.1745 82.1051 16.9105 82.1171 16.6945C82.1651 15.8665 82.3631 15.1525 82.7111 14.5525C83.0711 13.9405 83.5751 13.4665 84.2231 13.1305C84.8831 12.7945 85.6811 12.6265 86.6171 12.6265C87.5531 12.6265 88.3451 12.7945 88.9931 13.1305C89.6531 13.4665 90.1571 13.9405 90.5051 14.5525C90.8651 15.1525 91.0691 15.8665 91.1171 16.6945C91.1291 16.9105 91.1351 17.1745 91.1351 17.4865C91.1351 17.7985 91.1291 18.0625 91.1171 18.2785C91.0691 19.0945 90.8711 19.8085 90.5231 20.4205C90.1871 21.0325 89.6891 21.5065 89.0291 21.8425C88.3811 22.1785 87.5771 22.3465 86.6171 22.3465ZM86.6171 20.5645C87.2531 20.5645 87.7451 20.3665 88.0931 19.9705C88.4411 19.5625 88.6331 18.9685 88.6691 18.1885C88.6811 18.0085 88.6871 17.7745 88.6871 17.4865C88.6871 17.1985 88.6811 16.9645 88.6691 16.7845C88.6331 16.0165 88.4411 15.4285 88.0931 15.0205C87.7451 14.6125 87.2531 14.4085 86.6171 14.4085C85.9811 14.4085 85.4891 14.6125 85.1411 15.0205C84.7931 15.4285 84.6011 16.0165 84.5651 16.7845C84.5531 16.9645 84.5471 17.1985 84.5471 17.4865C84.5471 17.7745 84.5531 18.0085 84.5651 18.1885C84.6011 18.9685 84.7931 19.5625 85.1411 19.9705C85.4891 20.3665 85.9811 20.5645 86.6171 20.5645Z" fill="white"/>
</g>
<defs>
<filter id="filter0_d_1291_5068" x="14.404" y="9.56641" width="79.7311" height="18.5801" filterUnits="userSpaceOnUse" color-interpolation-filters="sRGB">
<feFlood flood-opacity="0" result="BackgroundImageFix"/>
<feColorMatrix in="SourceAlpha" type="matrix" values="0 0 0 0 0 0 0 0 0 0 0 0 0 0 0 0 0 0 127 0" result="hardAlpha"/>
<feOffset dx="1" dy="2"/>
<feGaussianBlur stdDeviation="1"/>
<feComposite in2="hardAlpha" operator="out"/>
<feColorMatrix type="matrix" values="0 0 0 0 0.054902 0 0 0 0 0.054902 0 0 0 0 0.321569 0 0 0 0.3 0"/>
<feBlend mode="normal" in2="BackgroundImageFix" result="effect1_dropShadow_1291_5068"/>
<feBlend mode="normal" in="SourceGraphic" in2="effect1_dropShadow_1291_5068" result="shape"/>
</filter>
<linearGradient id="paint0_linear_1291_5068" x1="0" y1="15.6761" x2="106" y2="15.6761" gradientUnits="userSpaceOnUse">
<stop offset="0.244792" stop-color="#B93DF6"/>
<stop offset="0.984275" stop-color="#3A65F1"/>
</linearGradient>
</defs>
</svg>
