<?xml version="1.0" standalone="no"?>
<!DOCTYPE svg PUBLIC "-//W3C//DTD SVG 20010904//EN"
 "http://www.w3.org/TR/2001/REC-SVG-20010904/DTD/svg10.dtd">
<svg version="1.0" xmlns="http://www.w3.org/2000/svg"
 width="700.000000pt" height="700.000000pt" viewBox="0 0 700.000000 700.000000"
 preserveAspectRatio="xMidYMid meet">
<metadata>
Created by potrace 1.14, written by Peter Selinger 2001-2017
</metadata>
<g transform="translate(0.000000,700.000000) scale(0.100000,-0.100000)"
fill="#000000" stroke="none">
<path d="M0 4066 c0 -1444 3 -2626 8 -2627 32 -3 55 -7 112 -17 36 -6 137 -23
225 -37 198 -32 207 -33 275 -45 85 -14 111 -19 165 -26 28 -3 52 -7 55 -9 3
-2 29 -6 59 -10 30 -4 63 -9 75 -11 12 -2 50 -9 86 -14 214 -34 381 -61 425
-69 28 -6 70 -12 95 -16 25 -3 54 -7 65 -9 11 -2 92 -16 180 -30 88 -14 171
-28 185 -31 13 -3 42 -7 65 -10 35 -5 102 -16 200 -32 17 -2 137 -22 268 -44
131 -22 253 -41 270 -43 18 -3 46 -7 62 -10 36 -6 339 -56 375 -61 14 -2 84
-13 155 -25 72 -12 141 -23 155 -25 14 -2 111 -18 215 -35 105 -17 206 -33
225 -36 19 -3 103 -16 185 -30 83 -14 161 -27 175 -29 39 -6 282 -45 313 -50
15 -3 42 -8 60 -11 40 -7 201 -32 287 -45 36 -5 72 -11 80 -14 8 -2 36 -6 62
-10 26 -3 111 -16 190 -29 79 -14 161 -27 183 -30 23 -4 52 -8 65 -11 13 -3
40 -7 60 -10 20 -3 45 -7 55 -9 18 -3 39 -7 140 -22 17 -3 41 -7 55 -9 181
-30 333 -55 365 -59 22 -4 56 -9 75 -13 19 -3 42 -7 50 -8 8 -1 33 -5 55 -9
41 -7 134 -22 193 -31 43 -7 66 -10 208 -35 67 -11 126 -20 133 -20 8 0 11
660 11 2593 l0 2593 -342 58 c-189 32 -352 60 -363 62 -44 8 -372 65 -405 70
-19 3 -73 12 -120 20 -47 8 -137 24 -200 34 -63 11 -125 22 -136 24 -12 2 -39
7 -60 10 -42 7 -386 65 -419 70 -41 8 -141 26 -170 31 -16 3 -86 14 -155 25
-69 12 -136 23 -150 26 -14 2 -106 18 -205 34 -99 17 -189 32 -200 34 -20 4
-61 11 -120 21 -16 3 -46 8 -65 10 -19 3 -55 10 -80 15 -25 5 -61 12 -80 15
-19 2 -46 7 -60 9 -27 5 -318 54 -360 61 -26 4 -364 62 -415 71 -16 3 -43 7
-60 10 -16 2 -41 6 -55 9 -14 3 -79 14 -145 25 -66 11 -169 29 -230 39 -60 11
-123 22 -140 25 -92 15 -223 37 -241 40 -28 6 -91 16 -129 21 -16 3 -41 7 -55
10 -31 6 -43 9 -200 35 -69 12 -136 23 -150 25 -20 3 -294 50 -415 71 -16 3
-41 7 -55 9 -14 2 -36 6 -50 9 -14 3 -92 17 -175 30 -433 72 -435 73 -475 81
-13 2 -42 7 -65 10 -22 3 -47 8 -55 10 -8 3 -46 9 -85 15 -38 5 -80 13 -92 16
l-23 6 0 -2626z"/>
</g>
</svg>
